<svg viewBox="0 0 105.82 105.82" xmlns="http://www.w3.org/2000/svg"><circle cx="52.91" cy="52.91" fill="#8245cf" r="52.91"/><g fill="#fff"><path d="m52.91 97.27a44.36 44.36 0 1 1 44.36-44.36 44.41 44.41 0 0 1 -44.36 44.36zm0-85.72a41.36 41.36 0 1 0 41.36 41.36 41.41 41.41 0 0 0 -41.36-41.36z"/><path d="m35.24 52.61a18.11 18.11 0 0 1 1.19-6.47 18.71 18.71 0 0 1 3.47-5.78 16.83 16.83 0 0 1 5.58-4.16 17.5 17.5 0 0 1 7.52-1.55 16.43 16.43 0 0 1 8.6 2.18 13.94 13.94 0 0 1 5.4 5.68l-5.38 3.71a8.5 8.5 0 0 0 -2.39-3.22 8.77 8.77 0 0 0 -3.15-1.68 11.85 11.85 0 0 0 -3.29-.48 9.43 9.43 0 0 0 -4.59 1.06 10.17 10.17 0 0 0 -3.27 2.79 11.83 11.83 0 0 0 -2 3.86 15 15 0 0 0 -.63 4.26 13.9 13.9 0 0 0 .76 4.59 12.69 12.69 0 0 0 2.15 3.91 10.24 10.24 0 0 0 3.39 2.69 9.34 9.34 0 0 0 4.29 1 11.08 11.08 0 0 0 3.4-.55 9.79 9.79 0 0 0 3.19-1.78 8.05 8.05 0 0 0 2.28-3.14l5.74 3.27a10.74 10.74 0 0 1 -3.5 4.57 17.33 17.33 0 0 1 -5.4 2.84 19.35 19.35 0 0 1 -5.93 1 15.52 15.52 0 0 1 -7.06-1.6 17.51 17.51 0 0 1 -5.5-4.26 20.21 20.21 0 0 1 -3.6-6 18.47 18.47 0 0 1 -1.27-6.74z"/></g></svg>