<svg width="23" height="23" viewBox="0 0 23 23" fill="none" xmlns="http://www.w3.org/2000/svg">
<rect width="23" height="23" rx="5" fill="#00A299" fill-opacity="0.15"/>
<path d="M15.5969 18.0312V10.7553H15.5627C15.5627 9.57402 14.8779 8.18731 14.8436 8.13595L13.5254 5.37966C13.9876 5.20846 14.33 4.76334 14.33 4.23263C14.33 3.54783 13.7822 3 13.0974 3H9.48512C8.80032 3 8.25249 3.54783 8.25249 4.23263C8.25249 4.76334 8.57776 5.20846 9.05712 5.37966L7.73889 8.13595C7.68753 8.20443 7.00274 9.59114 7.00274 10.7553V11.3202V14.9839V18.0141C7.00274 18.0483 6.93426 19.007 7.48209 19.572C7.75601 19.863 8.11553 20 8.56064 20H14.039C14.4841 20 14.8436 19.8459 15.1175 19.572C15.6483 18.9899 15.5969 18.0483 15.5969 18.0312ZM8.85168 4.23263C8.85168 3.89023 9.14272 3.59919 9.48512 3.59919H13.0974C13.4398 3.59919 13.7308 3.89023 13.7308 4.23263C13.7308 4.57503 13.4398 4.86606 13.0974 4.86606H9.48512C9.1256 4.86606 8.85168 4.57503 8.85168 4.23263ZM7.60193 10.7553C7.60193 9.7281 8.25249 8.42699 8.25249 8.40987L9.65631 5.46526H12.892L14.3129 8.40987C14.3129 8.42699 14.9635 9.7281 14.9635 10.7553V11.0121H7.60193V10.7553ZM7.60193 11.6284H14.9635V14.6929H7.60193V11.6284ZM14.6553 19.1782C14.5012 19.3494 14.2958 19.4179 14.0219 19.4179H8.54352C8.26961 19.4179 8.06417 19.3323 7.91009 19.1782C7.55057 18.7845 7.60193 18.0655 7.60193 18.0483V15.3092H14.9635V18.0826C14.9635 18.0655 15.0148 18.7845 14.6553 19.1782Z" fill="#00A299"/>
<path d="M10.1183 12.1931H9.53618L9.33074 12.8437C9.26226 13.0662 9.19378 13.323 9.14242 13.5456H9.1253C9.07394 13.3059 9.02258 13.0662 8.95411 12.8437L8.76579 12.1931H8.16659L8.04675 14.1619H8.45763L8.49187 13.4086C8.50899 13.1689 8.50899 12.8608 8.52611 12.5869C8.57747 12.8437 8.64595 13.1176 8.69731 13.3573L8.90275 14.1277H9.24514L9.48482 13.3573C9.5533 13.1347 9.6389 12.8437 9.70738 12.5869H9.74162C9.74162 12.8779 9.75874 13.1518 9.75874 13.3915L9.79298 14.1448H10.221L10.1183 12.1931Z" fill="#00A299"/>
<path d="M11.0086 12.1931H10.5635V14.1619H11.0086V12.1931Z" fill="#00A299"/>
<path d="M11.8475 13.7853V12.1931H11.4023V14.1619H12.635V13.7853H11.8475Z" fill="#00A299"/>
<path d="M13.8331 13.032L14.4836 12.1931H13.9358L13.4907 12.8437C13.4393 12.9121 13.4051 12.9806 13.3537 13.0662H13.3366V12.1931H12.8915V14.1619H13.3366V13.5113L13.5078 13.3059L13.9871 14.1619H14.5007L13.8331 13.032Z" fill="#00A299"/>
</svg>
