<svg width="23" height="23" viewBox="0 0 23 23" fill="none" xmlns="http://www.w3.org/2000/svg">
<rect width="23" height="23" rx="5" fill="#00A299" fill-opacity="0.15"/>
<path d="M17.825 13.2787H14.6558C14.6821 13.0362 14.7001 12.788 14.709 12.5371C14.7407 11.6271 14.62 10.743 14.3599 9.98045C14.0647 9.11523 13.6011 8.41089 12.9821 7.88702C12.888 7.80739 12.7559 7.79055 12.6449 7.84405C12.5338 7.89752 12.4646 8.01127 12.4682 8.13445C12.4859 8.74267 12.2252 9.22933 11.7709 9.43623C11.4186 9.59667 11.0263 9.54845 10.7715 9.31333C10.3831 8.95495 10.3467 8.23389 10.6716 7.33511C10.9553 6.55071 10.7455 5.48349 10.137 4.61628C9.63922 3.9069 8.99351 3.5 8.36548 3.5C8.22032 3.5 8.09432 3.6 8.06139 3.74137C7.53773 5.9874 6.66076 7.01024 5.81267 7.99939C5.28967 8.60939 4.79568 9.18554 4.40808 10.0043C3.55496 11.8051 3.41977 13.8611 4.04649 15.5043C4.5429 16.8058 5.48558 17.781 6.7728 18.3247C7.48114 18.6234 8.25973 18.7836 9.03626 18.7925C9.30563 19.2172 9.77963 19.5 10.3187 19.5H12.6227C12.7951 19.5 12.9349 19.3601 12.9349 19.1877C12.9349 19.0152 12.7951 18.8754 12.6227 18.8754H10.3187C9.95891 18.8754 9.64832 18.6615 9.50691 18.3542C9.50632 18.3529 9.50572 18.3516 9.5051 18.3502C9.45404 18.2379 9.42538 18.1133 9.42538 17.982V16.6161V14.7957C9.42538 14.3036 9.82613 13.9032 10.3187 13.9032H11.6625H17.825C18.3176 13.9032 18.7184 14.3036 18.7184 14.7957V17.982C18.7184 18.4746 18.3176 18.8754 17.825 18.8754H15.599C15.4266 18.8754 15.2867 19.0152 15.2867 19.1877C15.2867 19.3601 15.4266 19.5 15.599 19.5H17.825C18.662 19.5 19.3429 18.819 19.3429 17.982V14.7957C19.3429 13.9592 18.6619 13.2787 17.825 13.2787ZM7.01561 17.7493C5.8892 17.2736 5.06424 16.4203 4.62999 15.2817C4.06277 13.7945 4.19077 11.9216 4.97246 10.2716C5.3243 9.52845 5.79177 8.9832 6.28677 8.40589C7.1087 7.44721 8.03598 6.36577 8.60257 4.15697C8.95319 4.25047 9.32173 4.54172 9.62579 4.97506C10.1134 5.66993 10.2977 6.53302 10.0843 7.12277C9.51676 8.69277 10.0059 9.4567 10.3481 9.77232C10.788 10.1783 11.4481 10.2694 12.0297 10.0046C12.5254 9.77882 12.87 9.35145 13.0157 8.80733C13.7525 9.69879 14.1373 11.013 14.0849 12.5151C14.0757 12.7742 14.0562 13.0299 14.0273 13.2787H11.8829C11.6321 12.6664 11.1269 12.1654 10.4378 11.8529C10.3511 11.8136 10.2629 11.7779 10.1695 11.7402C9.4811 11.4617 8.76926 11.1738 8.81313 9.48883C8.81616 9.3732 8.75498 9.26536 8.65423 9.20861C8.55348 9.15186 8.42957 9.15542 8.33223 9.21795C7.38617 9.8257 6.68945 10.7014 6.3173 11.7503C5.98048 12.6997 5.9377 13.7217 6.19689 14.6279C6.38576 15.2882 6.72723 15.8485 7.18439 16.2481C7.63367 16.6409 8.18923 16.8703 8.80085 16.9191V17.982C8.80085 18.0424 8.80479 18.1018 8.8117 18.1604C8.19304 18.1265 7.57942 17.9871 7.01561 17.7493ZM10.3187 13.2787C9.48176 13.2787 8.80082 13.9592 8.80082 14.7957V16.2926C7.84257 16.1944 7.10204 15.5217 6.79729 14.4562C6.4148 13.1188 6.79773 11.272 8.20723 10.0844C8.35663 11.6808 9.29297 12.0593 9.93535 12.3192C10.0226 12.3545 10.1051 12.3878 10.1799 12.4218C10.6336 12.6275 10.9757 12.9195 11.1883 13.2787H10.3187V13.2787Z" fill="#00A299"/>
<path d="M14.3319 17.4058C14.3319 17.3412 14.308 17.2818 14.2593 17.2287C14.2106 17.1746 14.1574 17.148 14.1008 17.148C14.0635 17.148 14.0237 17.156 13.9812 17.1711L13.8952 17.2003C13.8084 17.2304 13.7358 17.2455 13.6791 17.2455C13.5471 17.2455 13.4399 17.1976 13.3584 17.102C13.2761 17.0054 13.2353 16.8832 13.2353 16.7344C13.2353 16.6546 13.2451 16.5846 13.2645 16.5253C13.2849 16.465 13.315 16.4137 13.354 16.3685C13.439 16.2737 13.5462 16.2268 13.6756 16.2268C13.7376 16.2268 13.8279 16.248 13.9475 16.2905C14.0148 16.3154 14.0635 16.3278 14.0928 16.3278C14.1601 16.3278 14.2159 16.3003 14.2611 16.2454C14.3054 16.1905 14.3284 16.1258 14.3284 16.0514C14.3284 15.9495 14.2638 15.8645 14.1344 15.798C14.0051 15.7307 13.8483 15.697 13.664 15.697C13.3682 15.697 13.1255 15.7954 12.9368 15.992C12.7472 16.1878 12.6533 16.4385 12.6533 16.7415C12.6533 17.0453 12.749 17.2942 12.9403 17.49C13.1317 17.6849 13.3717 17.7823 13.6605 17.7823C13.8465 17.7823 14.005 17.7469 14.1362 17.6742C14.2664 17.6025 14.3319 17.513 14.3319 17.4058Z" fill="#00A299"/>
<path d="M15.9641 17.7307C16.0349 17.6988 16.1147 17.635 16.2041 17.5403C16.3166 17.6971 16.407 17.7759 16.477 17.7759C16.5585 17.7759 16.6276 17.7493 16.6816 17.6953C16.7365 17.6422 16.764 17.5802 16.764 17.5111V15.944C16.764 15.874 16.7356 15.8174 16.678 15.7722C16.6213 15.7226 16.5549 15.6978 16.4805 15.6978C16.4061 15.6978 16.3166 15.7687 16.2121 15.9104C16.1173 15.828 16.0358 15.7713 15.9676 15.7403C15.8994 15.7093 15.8126 15.6942 15.7081 15.6942C15.4494 15.6942 15.2315 15.7952 15.0552 15.9981C14.879 16.2009 14.7904 16.449 14.7904 16.7422C14.7904 17.0309 14.8781 17.2754 15.0535 17.4774C15.2289 17.6785 15.445 17.7795 15.701 17.7795C15.8055 17.7794 15.8932 17.7635 15.9641 17.7307ZM15.4822 17.1133C15.4042 17.0176 15.3652 16.8936 15.3652 16.7421C15.3652 16.5933 15.4042 16.4693 15.4822 16.371C15.561 16.2727 15.6585 16.2239 15.7754 16.2239C15.8994 16.2239 15.9995 16.2718 16.0757 16.3674C16.1518 16.4631 16.189 16.588 16.189 16.7421C16.189 16.8919 16.1501 17.015 16.0721 17.1115C15.9932 17.209 15.8949 17.2568 15.7753 17.2568C15.6585 17.2568 15.561 17.2089 15.4822 17.1133Z" fill="#00A299"/>
<path d="M11.01 14.898C10.9533 14.8413 10.8851 14.8129 10.8054 14.8129C10.7283 14.8129 10.661 14.8413 10.6034 14.898C10.5467 14.9556 10.5175 15.0237 10.5175 15.1035V17.4837C10.5175 17.559 10.5467 17.6272 10.6034 17.6892C10.6636 17.7468 10.7318 17.7751 10.8089 17.7751C10.886 17.7751 10.9533 17.7468 11.01 17.6892C11.0676 17.6316 11.0959 17.5634 11.0959 17.4837V16.8123L11.7638 17.6441C11.8382 17.7344 11.9197 17.7787 12.0065 17.7787C12.0889 17.7787 12.1571 17.7513 12.212 17.6964C12.2661 17.6423 12.2935 17.5777 12.2935 17.5024C12.2935 17.4306 12.2687 17.366 12.2191 17.3084L11.607 16.5997L12.0553 16.2046C12.1323 16.1346 12.1704 16.0585 12.1704 15.977C12.1704 15.9043 12.1439 15.8414 12.0907 15.7865C12.0367 15.7316 11.9729 15.7041 11.8985 15.7041C11.8259 15.7041 11.7452 15.7467 11.6558 15.8308L11.0959 16.38V15.1035C11.0959 15.0237 11.0675 14.9556 11.01 14.898Z" fill="#00A299"/>
<path d="M17.9023 17.6897C17.959 17.6321 17.9882 17.564 17.9882 17.4842V15.112C17.9882 15.0322 17.959 14.9632 17.9023 14.9065C17.8447 14.8489 17.7765 14.8205 17.6968 14.8205C17.6171 14.8205 17.5488 14.8489 17.4913 14.9065C17.4346 14.9632 17.4062 15.0322 17.4062 15.112V17.4886C17.4062 17.5675 17.4346 17.6357 17.4913 17.6915C17.5489 17.7473 17.6171 17.7756 17.6968 17.7756C17.7765 17.7756 17.8447 17.7473 17.9023 17.6897Z" fill="#00A299"/>
<path d="M14.0719 18.8754H14.0702C13.8977 18.8754 13.7588 19.0152 13.7588 19.1877C13.7588 19.3602 13.8995 19.5 14.0719 19.5C14.2443 19.5 14.3842 19.3602 14.3842 19.1877C14.3842 19.0152 14.2443 18.8754 14.0719 18.8754Z" fill="#00A299"/>
</svg>
