<svg width="23" height="23" viewBox="0 0 23 23" fill="none" xmlns="http://www.w3.org/2000/svg">
<rect width="23" height="23" rx="5" fill="#00A299" fill-opacity="0.15"/>
<path d="M12.6418 15.2366C12.6763 14.9911 12.6028 14.7428 12.4404 14.5556C12.2779 14.3684 12.0423 14.2609 11.7944 14.2606H11.6451L10.1295 12.7449C8.80996 11.4258 6.67121 11.4258 5.35169 12.7449L3.83602 14.2606H3.68679C3.43892 14.2609 3.20327 14.3684 3.04081 14.5556C2.87836 14.7428 2.80488 14.9911 2.83942 15.2366C3.18792 17.6775 5.27494 19.4929 7.74059 19.5C8.5989 19.4989 9.44187 19.2729 10.1856 18.8445C10.2125 18.883 10.2423 18.9193 10.275 18.9531C10.4385 19.1174 10.6609 19.2096 10.8927 19.2089H18.8514C19.2046 19.2089 19.5231 18.9962 19.6582 18.67C19.7934 18.3436 19.7188 17.968 19.4691 17.7183L19.4132 17.6624L19.6263 16.7571C20.2341 14.1564 20.2661 11.4541 19.7196 8.83979L19.4388 7.50548C19.5607 7.45943 19.6832 7.41495 19.8043 7.3652C20.1021 7.24155 20.2456 6.902 20.127 6.60225L19.8384 5.88095C19.6844 5.49152 19.3077 5.23611 18.8889 5.23711H18.6086L17.3862 4.32024C15.9771 3.26109 14.0478 3.22443 12.5995 4.22913L11.1441 5.23711H11.068C10.7085 5.2381 10.3757 5.42657 10.19 5.73428L9.71177 6.53147C9.62266 6.68028 9.60347 6.86064 9.65961 7.0248C9.71575 7.18896 9.84125 7.31986 10.0029 7.38297L10.2006 7.45943C10.2364 7.4735 10.2725 7.48516 10.3081 7.49852L10.0259 8.8395C9.79236 9.95052 9.66288 11.0809 9.63929 12.2161L10.2214 12.2283C10.2435 11.1295 10.3678 10.0351 10.5931 8.95946L10.8595 7.69465C12.1581 8.12275 13.5164 8.34148 14.8837 8.34262C16.2427 8.34077 17.5928 8.12388 18.8841 7.69991L19.1491 8.95946C19.6781 11.4902 19.6471 14.1062 19.0586 16.6239L18.8083 17.6869C18.7853 17.7849 18.8147 17.8881 18.886 17.9593L19.0566 18.1299C19.1397 18.213 19.1646 18.3381 19.1198 18.4468C19.0749 18.5554 18.969 18.6265 18.8514 18.6268H10.8927C10.8154 18.6268 10.7412 18.5961 10.6866 18.5415C10.6822 18.5371 10.6808 18.531 10.6767 18.5266C11.7479 17.7392 12.4564 16.5531 12.6418 15.2366ZM12.93 4.70796C14.1719 3.84695 15.8257 3.87822 17.0342 4.78557L17.6373 5.23711H12.1651L12.93 4.70796ZM10.4098 6.91693L10.2092 6.83108L10.6875 6.03374C10.7675 5.90113 10.9109 5.81984 11.0658 5.81927H18.8889C19.0697 5.8187 19.2323 5.92885 19.2988 6.09699L19.584 6.82639C16.6522 8.0396 13.3649 8.07201 10.4098 6.91693ZM5.76329 13.1565C6.85612 12.0664 8.62505 12.0664 9.71788 13.1565L10.8219 14.2606H6.28519V13.9695H5.70303V14.2606H4.65923L5.76329 13.1565ZM7.74059 18.9178C5.56502 18.9117 3.7236 17.3101 3.41603 15.1565C3.40424 15.0771 3.42826 14.9965 3.48155 14.9364C3.53272 14.8766 3.60791 14.8422 3.68679 14.8427H11.7944C11.8728 14.8426 11.9473 14.8768 11.9982 14.9364C12.0515 14.9965 12.0754 15.0771 12.0637 15.1565C11.7562 17.3097 9.91558 18.911 7.74059 18.9178Z" fill="#00A299"/>
<path d="M7.15785 15.4249H5.99353V15.7159C5.99495 17.0014 7.03675 18.0432 8.32217 18.0446H9.48648V17.7535C9.48506 16.4679 8.44326 15.4263 7.15785 15.4249ZM8.32217 17.4624C7.47025 17.4613 6.74297 16.8467 6.59985 16.007H7.15785C8.00977 16.008 8.73704 16.6226 8.88016 17.4624H8.32217Z" fill="#00A299"/>
<path d="M12.9797 13.9694C12.9809 14.9814 13.7246 15.8391 14.7262 15.9837V16.8802H15.3084V15.9837C16.31 15.8391 17.0537 14.9814 17.0548 13.9694C17.0548 13.8087 16.9245 13.6784 16.7638 13.6784C16.737 13.6784 16.7108 13.6812 16.684 13.6823C16.9254 13.3407 17.0548 12.9325 17.0548 12.514C17.0548 12.3533 16.9245 12.223 16.7638 12.223C16.737 12.223 16.7108 12.2258 16.684 12.2269C16.9254 11.8853 17.0548 11.4771 17.0548 11.0586C17.0548 10.8979 16.9245 10.7676 16.7638 10.7676C16.4315 10.7673 16.1043 10.849 15.8111 11.0053C15.8614 10.409 15.6462 9.8207 15.2231 9.39744C15.1094 9.28374 14.9252 9.28374 14.8115 9.39744C14.3884 9.8207 14.1732 10.409 14.2235 11.0053C13.9303 10.849 13.6031 10.7673 13.2708 10.7676C13.1101 10.7676 12.9797 10.8979 12.9797 11.0586C12.9797 11.4771 13.1092 11.8853 13.3505 12.2269C13.3238 12.2269 13.2975 12.223 13.2708 12.223C13.1101 12.223 12.9797 12.3533 12.9797 12.514C12.9797 12.9325 13.1092 13.3407 13.3505 13.6823C13.3238 13.6823 13.2975 13.6784 13.2708 13.6784C13.1101 13.6784 12.9797 13.8087 12.9797 13.9694ZM13.5991 14.2978C14.1401 14.4242 14.5625 14.8467 14.689 15.3876C14.148 15.2611 13.7256 14.8387 13.5991 14.2978ZM14.689 13.9322C14.148 13.8057 13.7256 13.3833 13.5991 12.8424C14.1401 12.9688 14.5625 13.3913 14.689 13.9322ZM16.4355 12.8424C16.309 13.3833 15.8866 13.8057 15.3456 13.9322C15.4721 13.3913 15.8945 12.9688 16.4355 12.8424ZM15.3456 15.3876C15.4721 14.8467 15.8945 14.4242 16.4355 14.2978C16.309 14.8387 15.8866 15.2611 15.3456 15.3876ZM15.3456 12.4768C15.4721 11.9359 15.8945 11.5135 16.4355 11.387C16.309 11.9279 15.8866 12.3503 15.3456 12.4768ZM15.0173 10.069C15.3104 10.5407 15.3104 11.1381 15.0173 11.61C14.7242 11.1381 14.7242 10.5407 15.0173 10.069ZM14.689 12.4779C14.148 12.3514 13.7256 11.929 13.5991 11.3881C14.1398 11.5144 14.5621 11.9363 14.689 12.4768V12.4779Z" fill="#00A299"/>
<path d="M7.15857 12.8058H7.74073V13.388H7.15857V12.8058Z" fill="#00A299"/>
<path d="M8.61414 13.3873H9.19629V13.9694H8.61414V13.3873Z" fill="#00A299"/>
</svg>
