<svg width="23" height="23" viewBox="0 0 23 23" fill="none" xmlns="http://www.w3.org/2000/svg">
<rect width="23" height="23" rx="5" fill="#00A299" fill-opacity="0.15"/>
<path d="M11.6066 11.495H10.7061C10.5403 11.495 10.4059 11.6294 10.4059 11.7952V14.797C10.4059 14.9628 10.5403 15.0972 10.7061 15.0972H11.6066C12.2698 15.0972 12.8074 14.5596 12.8074 13.8965V12.6957C12.8074 12.0326 12.2698 11.495 11.6066 11.495ZM12.207 13.8965C12.207 14.228 11.9382 14.4968 11.6066 14.4968H11.0063V12.0953H11.6066C11.9382 12.0953 12.207 12.3641 12.207 12.6957V13.8965Z" fill="#00A299"/>
<path d="M13.7081 15.0972H15.5093C15.6751 15.0972 15.8095 14.9628 15.8095 14.797C15.8095 14.6312 15.6751 14.4968 15.5093 14.4968H14.0083V11.7952C14.0083 11.6294 13.8739 11.495 13.7081 11.495C13.5424 11.495 13.408 11.6294 13.408 11.7952V14.797C13.408 14.9628 13.5424 15.0972 13.7081 15.0972Z" fill="#00A299"/>
<path d="M8.00441 15.0972H9.80555C9.97133 15.0972 10.1057 14.9628 10.1057 14.797C10.1057 14.6312 9.97133 14.4968 9.80555 14.4968H8.3046V11.7952C8.3046 11.6294 8.1702 11.495 8.00441 11.495C7.83862 11.495 7.70422 11.6294 7.70422 11.7952V14.797C7.70422 14.9628 7.83862 15.0972 8.00441 15.0972Z" fill="#00A299"/>
<path d="M4.10174 15.0976C3.60437 15.0976 3.20117 15.5008 3.20117 15.9981C3.20117 16.1639 3.33557 16.2983 3.50136 16.2983C3.66715 16.2983 3.80155 16.1639 3.80155 15.9981C3.80155 15.8323 3.93595 15.6979 4.10174 15.6979C4.26753 15.6979 4.40193 15.5635 4.40193 15.3978C4.40193 15.232 4.26753 15.0976 4.10174 15.0976Z" fill="#00A299"/>
<path d="M18.5109 7.89304C18.0981 7.89366 17.704 8.06527 17.4224 8.36704C16.5669 8.0145 15.6619 7.79727 14.7396 7.72314C13.9252 6.48878 13.0289 5.3104 12.0568 4.19593C11.9404 4.07097 11.7773 4 11.6065 4C11.4358 4 11.2727 4.07097 11.1563 4.19593C9.89426 5.63589 8.76741 7.18891 7.78995 8.83533C4.56863 10.1643 2.61381 12.3406 2.82694 14.3315C2.17858 14.8255 1.87486 15.6502 2.04794 16.4467C2.22102 17.2432 2.8396 17.8675 3.6345 18.0479C4.4294 18.2283 5.25685 17.9321 5.75677 17.2883C6.54149 17.546 7.35627 17.701 8.18079 17.7494C9.13972 18.5568 10.353 18.9997 11.6065 19C13.7332 18.9876 15.6549 17.7288 16.5158 15.7841C18.902 14.3678 20.1463 12.4679 19.7638 10.801C19.7298 10.6597 19.6845 10.5214 19.6285 10.3873C20.0248 9.94793 20.1245 9.31598 19.8825 8.77597C19.6405 8.23595 19.1026 7.88968 18.5109 7.89304ZM18.5109 8.49342C19.0082 8.49342 19.4114 8.89662 19.4114 9.39398C19.4114 9.89135 19.0082 10.2945 18.5109 10.2945C18.0135 10.2945 17.6103 9.89135 17.6103 9.39398C17.6103 8.89662 18.0135 8.49342 18.5109 8.49342ZM11.6047 4.59097C12.4071 5.50895 16.4095 10.2525 16.4095 13.5003C16.4098 14.1392 16.2865 14.7721 16.0463 15.3641C14.8579 16.0299 13.5785 16.518 12.2486 16.8131C11.0027 17.1026 9.72329 17.2223 8.44526 17.1689H8.43295C7.39369 16.2327 6.80131 14.899 6.80353 13.5003C6.80353 10.2525 10.8059 5.50895 11.6047 4.59097ZM4.10184 17.4991C3.27289 17.4991 2.6009 16.8271 2.6009 15.9981C2.6009 15.1692 3.27289 14.4972 4.10184 14.4972C4.93078 14.4972 5.60278 15.1692 5.60278 15.9981C5.60179 16.8267 4.93037 17.4981 4.10184 17.4991ZM4.10184 13.8968C3.86658 13.8977 3.63315 13.9383 3.41141 14.0169C3.42671 12.5219 4.94026 10.8577 7.32045 9.70558C6.66694 10.9919 6.20315 12.3208 6.20315 13.5003C6.20135 14.8105 6.6651 16.0788 7.51167 17.0788C7.01925 17.0134 6.53342 16.9055 6.05966 16.7561C6.312 16.1101 6.22852 15.3811 5.83669 14.8088C5.44486 14.2366 4.79538 13.8951 4.10184 13.8968ZM11.6065 18.3996C10.787 18.3995 9.9818 18.1851 9.27077 17.7776C10.318 17.7582 11.3604 17.6311 12.3816 17.3985C13.47 17.1534 14.5277 16.7881 15.5354 16.3094C14.6508 17.6117 13.1808 18.3938 11.6065 18.3996ZM16.8337 14.8691C16.9489 14.4219 17.0081 13.9621 17.0099 13.5003C17.0099 11.9072 16.1652 10.0412 15.1509 8.37514C15.8212 8.4614 16.478 8.63227 17.1054 8.88366C17.0438 9.04683 17.0115 9.21959 17.0099 9.39398C17.0078 9.90402 17.2658 10.38 17.6945 10.6564C18.1231 10.9328 18.6631 10.9716 19.1268 10.7592C19.1455 10.8166 19.1644 10.8733 19.1791 10.9351C19.4682 12.1962 18.5796 13.6585 16.8337 14.8691Z" fill="#00A299"/>
<path d="M11.1266 10.7525C11.2392 10.9047 11.4172 10.9945 11.6065 10.9948C11.7958 10.9951 11.9741 10.9058 12.0872 10.754L13.288 9.1528C13.4237 8.97088 13.4452 8.72797 13.3436 8.52501C13.242 8.32205 13.0346 8.19374 12.8077 8.1934V6.99265C12.8077 6.66107 12.5389 6.39227 12.2073 6.39227H11.0065C10.675 6.39227 10.4062 6.66107 10.4062 6.99265V8.1934C10.1788 8.1934 9.97087 8.32188 9.86917 8.52528C9.76747 8.72868 9.78942 8.97208 9.92586 9.154L11.1266 10.7525ZM10.7064 8.79378C10.8721 8.79378 11.0065 8.65938 11.0065 8.49359V6.99265H12.2073V8.49359C12.2073 8.65938 12.3417 8.79378 12.5075 8.79378H12.8077L11.6069 10.3938L10.4062 8.79378H10.7064Z" fill="#00A299"/>
</svg>
