<svg width="20" height="20" viewBox="0 0 20 20" fill="none" xmlns="http://www.w3.org/2000/svg">
<path d="M10 3.91307C6.64363 3.91307 3.91309 6.64362 3.91309 10C3.91309 13.3564 6.64363 16.087 10 16.087C13.3564 16.087 16.087 13.3564 16.087 10C16.087 6.64362 13.3564 3.91307 10 3.91307ZM9.53895 9.15659C9.66207 9.27995 9.82594 9.34784 10 9.34784C10.5227 9.34784 11.0139 9.55143 11.3834 9.92104C11.7528 10.2902 11.9566 10.7815 11.9566 11.3044C11.9566 12.0975 11.48 12.8491 10.6522 13.1423V13.6957C10.6522 14.056 10.3601 14.3479 10 14.3479C9.64 14.3479 9.34785 14.056 9.34785 13.6957V13.1423C9.0768 13.0463 8.82598 12.8971 8.61672 12.6877C8.24734 12.3185 8.04352 11.8272 8.04352 11.3044C8.04352 10.9441 8.33566 10.6522 8.6957 10.6522C9.05574 10.6522 9.34789 10.9441 9.34789 11.3044C9.34789 11.4785 9.41586 11.6421 9.53898 11.7653C9.92707 12.154 10.6523 11.9024 10.6523 11.3044C10.6523 11.1303 10.5843 10.9666 10.4612 10.8435C10.338 10.7201 10.1742 10.6522 10.0001 10.6522C9.47742 10.6522 8.98617 10.4486 8.61676 10.079C8.24738 9.70983 8.04355 9.21858 8.04355 8.69569C8.04355 7.90252 8.52012 7.15092 9.34789 6.85776V6.30436C9.34789 5.94409 9.64004 5.65217 10.0001 5.65217C10.3601 5.65217 10.6523 5.94409 10.6523 6.30436V6.85776C11.4746 7.14897 11.9566 7.8967 11.9566 8.69569C11.9566 9.05596 11.6645 9.34787 11.3044 9.34787C10.9444 9.34787 10.6522 9.05596 10.6522 8.69569C10.6522 8.52159 10.5843 8.35791 10.4611 8.23479C10.2149 7.98811 9.78516 7.98831 9.53891 8.23455C9.41582 8.35791 9.34785 8.52159 9.34785 8.69569C9.34785 8.86979 9.41582 9.03346 9.53895 9.15659Z" fill="#00A299"/>
<path d="M10 0C4.48582 0 0 4.48605 0 10C0 15.5139 4.48582 20 10 20C15.5142 20 20 15.5139 20 10C20 4.48605 15.5142 0 10 0ZM10 17.3913C5.92434 17.3913 2.60871 14.0756 2.60871 10C2.60871 5.92438 5.92434 2.60871 10 2.60871C14.0757 2.60871 17.3913 5.92434 17.3913 10C17.3913 14.0757 14.0757 17.3913 10 17.3913Z" fill="#00A299"/>
</svg>
