<svg id="Layer_1" data-name="Layer 1" xmlns="http://www.w3.org/2000/svg" viewBox="0 0 105.82 105.82"><defs><style>.cls-1{fill:#f38134;}.cls-2{fill:#fff;}</style></defs><circle class="cls-1" cx="52.91" cy="52.91" r="52.91"/><path class="cls-2" d="M52.91,97.27A44.36,44.36,0,1,1,97.27,52.91,44.41,44.41,0,0,1,52.91,97.27Zm0-85.72A41.36,41.36,0,1,0,94.27,52.91,41.41,41.41,0,0,0,52.91,11.55Z"/><path class="cls-2" d="M40,70.92v-36H53.07a18.68,18.68,0,0,1,9.84,2.41,15.23,15.23,0,0,1,5.93,6.5,20.46,20.46,0,0,1,2,9,19.82,19.82,0,0,1-2.18,9.54,15.48,15.48,0,0,1-6.16,6.29,18.93,18.93,0,0,1-9.41,2.23ZM63.77,52.86a14.24,14.24,0,0,0-1.26-6.16,9.76,9.76,0,0,0-3.66-4.16A10.63,10.63,0,0,0,53.07,41H47V64.78h6.09a10.41,10.41,0,0,0,5.83-1.55A9.83,9.83,0,0,0,62.53,59,14.47,14.47,0,0,0,63.77,52.86Z"/></svg>