<svg width="23" height="23" viewBox="0 0 23 23" fill="none" xmlns="http://www.w3.org/2000/svg">
<rect width="23" height="23" rx="5" fill="#00A299" fill-opacity="0.15"/>
<path d="M9.71878 14.4654C9.84359 14.4654 9.96153 14.3901 10.0098 14.2669L10.1734 13.8495H11.2777L11.4413 14.2669C11.4896 14.3901 11.6075 14.4654 11.7323 14.4654C11.7702 14.4654 11.8088 14.4584 11.8462 14.4438C12.0069 14.3808 12.0862 14.1995 12.0232 14.0388L11.783 13.426C11.7813 13.4214 11.7796 13.4167 11.7776 13.4122L11.0165 11.4699C10.97 11.3514 10.8519 11.2712 10.7247 11.2716C10.5981 11.272 10.4808 11.3519 10.4346 11.4699L9.42788 14.0388C9.36491 14.1995 9.44413 14.3808 9.60481 14.4438C9.64228 14.4584 9.68084 14.4654 9.71878 14.4654ZM10.7255 12.4404L11.0328 13.2244H10.4183L10.7255 12.4404Z" fill="#00A299"/>
<path d="M8.57091 11.8966C8.74351 11.8966 8.88341 11.7567 8.88341 11.5841C8.88341 11.4115 8.74351 11.2716 8.57091 11.2716H7.41357C7.24098 11.2716 7.10107 11.4115 7.10107 11.5841V14.153C7.10107 14.3256 7.24098 14.4655 7.41357 14.4655C7.58617 14.4655 7.72607 14.3256 7.72607 14.153V13.1009H8.57091C8.74351 13.1009 8.88341 12.961 8.88341 12.7884C8.88341 12.6158 8.74351 12.4759 8.57091 12.4759H7.72607V11.8966H8.57091V11.8966Z" fill="#00A299"/>
<path d="M13.4647 14.4655C13.6373 14.4655 13.7772 14.3256 13.7772 14.153V11.8966H14.3695C14.5421 11.8966 14.682 11.7567 14.682 11.5841C14.682 11.4115 14.5421 11.2716 14.3695 11.2716H12.5653C12.3927 11.2716 12.2528 11.4115 12.2528 11.5841C12.2528 11.7567 12.3927 11.8966 12.5653 11.8966H13.1522V14.153C13.1522 14.3256 13.2922 14.4655 13.4647 14.4655Z" fill="#00A299"/>
<path d="M7.09973 8.3474C7.27233 8.3474 7.41223 8.2075 7.41223 8.0349V8.03403C7.41223 7.86143 7.27233 7.72197 7.09973 7.72197C6.92714 7.72197 6.78723 7.86231 6.78723 8.0349C6.78723 8.2075 6.92714 8.3474 7.09973 8.3474Z" fill="#00A299"/>
<path d="M15.8743 4.04909C15.6856 3.81366 15.389 3.50066 14.9928 3.50066C14.5966 3.50066 14.3 3.81366 14.1116 4.04878C13.824 4.40684 13.4253 4.92284 13.0524 5.53234C12.7574 5.13553 12.4793 4.7815 12.2375 4.47975C11.7019 3.81131 11.2192 3.5 10.7184 3.5C10.2176 3.5 9.73494 3.81131 9.19938 4.47972C8.56116 5.27603 8.04775 5.97094 7.58372 6.66656C7.48797 6.81016 7.52672 7.00419 7.67028 7.09994C7.81384 7.19572 8.00787 7.15697 8.10366 7.01338C8.55734 6.33322 9.06047 5.65234 9.68709 4.87053C10.0891 4.36887 10.4264 4.125 10.7184 4.125C11.0104 4.125 11.3478 4.36888 11.7498 4.87059C13.5002 7.05472 15.8274 10.364 15.8274 13.8715C15.8274 17.3092 13.1791 18.875 10.7184 18.875C8.25775 18.875 5.60938 17.3092 5.60938 13.8715C5.60938 12.4825 5.98716 10.9795 6.73225 9.40431C6.80606 9.24828 6.73941 9.062 6.58337 8.98822C6.42737 8.91441 6.24106 8.98106 6.16728 9.13709C5.38234 10.7965 4.98438 12.3894 4.98438 13.8715C4.98438 15.6067 5.60728 17.0668 6.78578 18.094C7.826 19.0007 9.22266 19.5 10.7184 19.5C12.2142 19.5 13.6108 19.0007 14.6511 18.094C15.8295 17.0668 16.4525 15.6067 16.4525 13.8715C16.4525 13.1398 16.3555 12.3819 16.1629 11.6023C16.6488 11.4198 17.0652 11.1271 17.3788 10.744C17.7954 10.2351 18.0156 9.57731 18.0156 8.84181C18.0156 6.941 16.7935 5.19616 15.8743 4.04909ZM15.9955 10.9976C15.7502 10.1949 15.4068 9.37081 14.966 8.52978C14.4963 7.63363 13.9623 6.80438 13.4522 6.08328C13.8415 5.40691 14.2877 4.82753 14.5991 4.43988C14.8181 4.16647 14.9398 4.12563 14.9928 4.12563C15.0458 4.12563 15.1674 4.16647 15.3865 4.43988C16.2468 5.51344 17.3906 7.13775 17.3906 8.84175C17.3906 9.86025 16.875 10.6464 15.9955 10.9976Z" fill="#00A299"/>
</svg>
