<svg width="23" height="23" viewBox="0 0 23 23" fill="none" xmlns="http://www.w3.org/2000/svg">
<rect width="23" height="23" rx="5" fill="#00A299" fill-opacity="0.15"/>
<path d="M17.6195 12.9691C17.546 12.813 17.3598 12.7459 17.2037 12.8194C17.2014 12.8205 17.1984 12.8219 17.1962 12.823C17.0419 12.9002 16.9793 13.0879 17.0565 13.2423C17.1112 13.3518 17.2216 13.4151 17.3363 13.4151C17.3826 13.4151 17.4296 13.4047 17.4739 13.383C17.6271 13.3082 17.6923 13.1239 17.6195 12.9691Z" fill="#00A299"/>
<path d="M10.9123 6.58968L10.8962 6.58837C10.7239 6.57493 10.5736 6.703 10.5598 6.87506C10.5461 7.04709 10.6745 7.19768 10.8465 7.21143L10.8625 7.21268C10.8709 7.21337 10.8793 7.21371 10.8877 7.21371C11.049 7.21371 11.1858 7.08965 11.1989 6.92612C11.2127 6.75406 11.0843 6.60346 10.9123 6.58968Z" fill="#00A299"/>
<path d="M18.0549 9.21681C17.745 8.60418 17.0553 8.07475 16.005 7.64325C15.1551 7.29409 14.2257 7.07353 13.5957 6.94993C13.2181 6.8759 12.8224 6.80978 12.4196 6.75346C12.2488 6.72934 12.0908 6.84871 12.0668 7.01968C12.0429 7.19062 12.1621 7.34853 12.333 7.37243C12.7246 7.42718 13.1089 7.4914 13.4754 7.56328C15.622 7.98425 17.0879 8.68978 17.4973 9.4989C17.5833 9.66893 17.6251 9.85203 17.6251 10.0587C17.6251 11.0899 16.786 11.929 15.7547 11.929C14.712 11.929 13.6994 12.0994 12.6591 12.45C12.211 12.601 11.7759 12.7815 11.3552 12.9562C11.0769 13.0716 10.7892 13.1911 10.5036 13.2993C9.78278 13.5725 9.23031 13.689 8.65634 13.689C6.84703 13.689 5.37503 12.2171 5.37503 10.4078C5.37503 8.59847 6.84703 7.12646 8.65634 7.12646C9.00931 7.12646 9.36766 7.13315 9.72134 7.14634C9.78138 7.14856 9.84147 7.15097 9.90159 7.15362C10.0739 7.16143 10.22 7.02762 10.2276 6.85518C10.2352 6.68278 10.1016 6.53681 9.92916 6.52921C9.86759 6.5265 9.80603 6.52403 9.74459 6.52175C9.38319 6.50828 9.01703 6.50146 8.65631 6.50146C6.50238 6.50146 4.75 8.25381 4.75 10.4078C4.75 12.5617 6.50234 14.314 8.65631 14.314C9.31053 14.314 9.92922 14.1853 10.725 13.8837C11.0198 13.772 11.3121 13.6507 11.5948 13.5334C12.0058 13.3628 12.4308 13.1864 12.8587 13.0422C13.8336 12.7137 14.7809 12.5539 15.7547 12.5539C17.1307 12.554 18.2501 11.4346 18.2501 10.0587C18.2501 9.75175 18.1862 9.47637 18.0549 9.21681Z" fill="#00A299"/>
<path d="M8.95574 7.74457C8.08212 7.74457 7.37134 8.3891 7.37134 9.18135C7.37134 9.9736 8.08212 10.6181 8.95574 10.6181C9.8294 10.6181 10.5402 9.9736 10.5402 9.18135C10.5402 8.3891 9.8294 7.74457 8.95574 7.74457ZM8.95574 9.9931C8.42671 9.9931 7.99634 9.62895 7.99634 9.18132C7.99634 8.73373 8.42671 8.36954 8.95574 8.36954C9.48478 8.36954 9.91515 8.7337 9.91515 9.18132C9.91515 9.62895 9.48478 9.9931 8.95574 9.9931Z" fill="#00A299"/>
<path d="M18.1396 7.42787C17.41 6.8464 16.3802 6.37034 15.0788 6.01296C12.576 5.32565 9.75359 5.25146 8.65628 5.25146C5.81309 5.25146 3.5 7.56459 3.5 10.4078V12.5925C3.5 15.4357 5.81309 17.7488 8.65628 17.7488C9.96731 17.7488 10.9519 17.3381 11.9943 16.9033C13.0723 16.4536 14.187 15.9887 15.7547 15.9887C17.8198 15.9887 19.5 14.3085 19.5 12.2433V10.0587C19.5 9.03243 19.0423 8.14731 18.1396 7.42787ZM17.8764 12.7702C17.9948 12.8959 18.1925 12.9018 18.3182 12.7835C18.5301 12.584 18.7166 12.3616 18.875 12.1222V12.2433C18.875 13.9639 17.4752 15.3637 15.7547 15.3637C14.0618 15.3637 12.8885 15.8531 11.7537 16.3264C10.7707 16.7365 9.84219 17.1238 8.65628 17.1238C6.25566 17.1238 4.28537 15.2471 4.13463 12.8838C5.01213 14.4799 6.70991 15.564 8.65628 15.564C9.96731 15.564 10.9519 15.1533 11.9943 14.7185C13.0723 14.2689 14.187 13.8039 15.7547 13.8039C15.8711 13.8039 15.9888 13.7984 16.1044 13.7876C16.2762 13.7715 16.4025 13.6192 16.3864 13.4473C16.3703 13.2755 16.2178 13.1493 16.0461 13.1654C15.9498 13.1744 15.8517 13.179 15.7547 13.179C14.0618 13.179 12.8885 13.6684 11.7537 14.1417C10.7707 14.5517 9.84219 14.9391 8.65628 14.9391C6.15772 14.9391 4.125 12.9063 4.125 10.4078C4.125 7.90925 6.15772 5.8765 8.65628 5.8765C9.72825 5.8765 12.4838 5.94853 14.9133 6.61568C17.5421 7.33759 18.875 8.49597 18.875 10.0587C18.875 10.9116 18.5159 11.7389 17.8897 12.3284C17.7641 12.4467 17.7581 12.6445 17.8764 12.7702Z" fill="#00A299"/>
</svg>
