<svg width="23" height="23" viewBox="0 0 23 23" fill="none" xmlns="http://www.w3.org/2000/svg">
<rect width="23" height="23" rx="5" fill="#00A299" fill-opacity="0.15"/>
<path d="M16.6116 17.4624L15.6518 9.58497C16.1549 9.41247 16.5174 8.93478 16.5174 8.374C16.5174 7.66834 15.9433 7.09425 15.2377 7.09425H15.0735V6.09869C15.0735 4.94147 14.132 4 12.9748 4H9.65239C8.49517 4 7.5537 4.94147 7.5537 6.09869V7.09422H7.38952C6.68386 7.09422 6.10977 7.66831 6.10977 8.37397C6.10977 8.93475 6.47233 9.41244 6.97536 9.58494L6.01545 17.4637C5.93992 18.1073 6.14364 18.7541 6.5743 19.2382C7.00492 19.7223 7.62355 20 8.27149 20H14.3557C15.0036 20 15.6223 19.7223 16.0529 19.2382C16.4836 18.7541 16.6873 18.1073 16.6116 17.4624ZM8.1787 6.09869C8.1787 5.28609 8.8398 4.625 9.65239 4.625H10.3088L10.0146 4.91913C9.89261 5.04116 9.89261 5.23903 10.0146 5.36106C10.0757 5.42209 10.1556 5.45259 10.2356 5.45259C10.3156 5.45259 10.3955 5.42206 10.4566 5.36106L11.0011 4.81659V5.14009C11.0011 5.31269 11.141 5.45259 11.3136 5.45259C11.4861 5.45259 11.6261 5.31269 11.6261 5.14009V4.81659L12.1706 5.36106C12.2316 5.42209 12.3116 5.45259 12.3915 5.45259C12.4715 5.45259 12.5515 5.42206 12.6125 5.36106C12.7345 5.23903 12.7345 5.04116 12.6125 4.91913L12.3184 4.625H12.9748C13.7874 4.625 14.4485 5.28609 14.4485 6.09869V7.09422H8.1787V6.09869ZM15.5859 18.8228C15.2738 19.1737 14.8254 19.375 14.3557 19.375H8.27149C7.80183 19.375 7.35339 19.1737 7.04127 18.8228C6.72911 18.4719 6.58145 18.0031 6.63602 17.538L7.59661 9.65375H9.90089C10.0735 9.65375 10.2134 9.51384 10.2134 9.34125C10.2134 9.16866 10.0735 9.02875 9.90089 9.02875H7.38952C7.02849 9.02875 6.73477 8.73503 6.73477 8.374C6.73477 8.01297 7.02849 7.71925 7.38952 7.71925H15.2377C15.5987 7.71925 15.8924 8.01297 15.8924 8.374C15.8924 8.73503 15.5987 9.02875 15.2377 9.02875H12.7263C12.5537 9.02875 12.4138 9.16866 12.4138 9.34125C12.4138 9.51384 12.5537 9.65375 12.7263 9.65375H15.0306L15.991 17.5366C16.0457 18.0031 15.8981 18.4719 15.5859 18.8228Z" fill="#00A299"/>
<path d="M11.3075 9.65373C11.1769 9.65373 11.0573 9.56905 11.0133 9.44636C10.9699 9.32533 11.0072 9.18611 11.1054 9.10304C11.2081 9.01607 11.3579 9.00564 11.4723 9.07604C11.5816 9.14333 11.6391 9.27639 11.6138 9.40217C11.5848 9.5463 11.4548 9.65373 11.3075 9.65373Z" fill="#00A299"/>
<path d="M14.3554 18.625H8.27117C7.92102 18.625 7.70117 18.4367 7.6013 18.3243C7.50142 18.2121 7.33995 17.9718 7.38074 17.624L7.93267 12.9203C7.9448 12.817 8.00745 12.7266 8.09992 12.6789C8.19233 12.6313 8.30242 12.6328 8.39355 12.6829C8.6222 12.8086 8.88205 12.875 9.14495 12.875C9.79133 12.875 10.3621 12.4865 10.5992 11.8854C10.6462 11.766 10.7615 11.6875 10.8899 11.6875H14.2712C14.4297 11.6875 14.5631 11.8062 14.5815 11.9636L15.2458 17.624C15.2866 17.9717 15.1251 18.212 15.0252 18.3243C14.9254 18.4367 14.7055 18.625 14.3554 18.625ZM8.50514 13.4045L8.00149 17.6968C7.98977 17.7969 8.03133 17.8674 8.0683 17.909C8.10527 17.9505 8.17042 18 8.27117 18H14.3554C14.4561 18 14.5213 17.9505 14.5583 17.909C14.5952 17.8674 14.6368 17.7969 14.6251 17.6968L13.9932 12.3125H11.0914C10.7191 13.0405 9.97674 13.5 9.14502 13.5C8.92767 13.5 8.71167 13.4675 8.50514 13.4045Z" fill="#00A299"/>
</svg>
